PathFileType	4	(X/Y/Z)	C:/Users/beibeiliu/ov580/test_trc/User3\sequence.8_training_dense_right.trc
DataRate	CameraRate	NumFrames	NumMarkers	Units	OrigDataRate	OrigDataStartFrame	OrigNumFrames
120	120	22	19	mm	120	30	235
Frame#	Time	ThumbCMC			ThumbMCP			ThumbIP			ThumbTip			IndexMCP			IndexPIP			IndexTip			MiddleMCP			MiddlePIP			MiddleTip			RingMCP			RingPIP			RingTip			PinkyMCP			PinkyPIP			PinkyTip			BackHand1			BackHand2			BackHand3	
		X0	Y0	Z0	X1	Y1	Z1	X2	Y2	Z2	X3	Y3	Z3	X4	Y4	Z4	X5	Y5	Z5	X6	Y6	Z6	X7	Y7	Z7	X8	Y8	Z8	X9	Y9	Z9	X10	Y10	Z10	X11	Y11	Z11	X12	Y12	Z12	X13	Y13	Z13	X14	Y14	Z14	X15	Y15	Z15	X16	Y16	Z16	X17	Y17	Z17	X18	Y18	Z18	
29	0.241667	124.641	-25.3242	40.1781	108.649	-35.4986	11.9431	102.997	-44.6335	-19.7993	118.45	-56.5983	-39.8435	145.834	-0.88201	-34.3748	142.709	2.7653	-56.7488	140.961	1.29847	-82.7781	158.265	-24.7325	-43.2598	143.869	-52.5462	-51.7675	132.094	-64.2087	-14.5554	172.874	-38.6197	-32.9802	156.548	-65.6815	-38.7324	145.848	-68.9147	-7.06091	186.632	-49.1004	-21.6032	170.473	-72.884	-29.0609	158.862	-79.3319	-3.51627	184.457	-16.1397	17.6257	188.564	-19.7757	50.5449	152.657	-4.18389	36.4997	
30	0.25	122.91	-24.2589	38.1322	108.533	-33.6712	9.60312	106.625	-43.9237	-17.5969	119.138	-55.4071	-36.3492	142.312	1.82625	-30.4763	145.558	3.04538	-57.3758	143.931	4.18305	-80.9188	157.73	-24.1294	-40.9877	142.824	-52.3666	-50.8021	135.824	-62.9055	-14.0702	172.014	-38.8516	-34.3842	155.041	-64.3522	-38.0739	149.272	-66.7286	-2.46703	184.099	-48.552	-21.9556	167.126	-69.0731	-27.7704	156.778	-74.7217	-2.08582	184.946	-17.3233	19.4513	185.661	-20.5208	48.7807	154.195	-3.98049	37.1466	
31	0.258333	123.544	-24.7689	39.8323	109.278	-33.7616	7.44302	107.451	-42.8933	-18.6616	120.987	-55.9557	-39.877	146.651	0.574987	-27.2995	145.599	5.88921	-56.8122	147.423	5.34961	-81.9909	158.776	-23.4176	-41.9848	144.854	-51.3186	-50.7012	134.133	-60.4069	-10.8929	169.847	-38.8738	-34.1195	156.132	-65.448	-34.8778	145.698	-65.8904	-5.15922	186.172	-49.923	-21.3094	168.211	-68.9754	-26.9504	155.121	-70.446	0.138747	182.993	-16.3205	19.2079	184.427	-18.1172	52.0481	156.888	-5.47014	36.6879	
32	0.266667	121.068	-23.5327	42.8566	107.706	-32.6314	7.56226	105.671	-41.3022	-21.6143	122.494	-54.7323	-39.5721	146.461	2.56918	-25.7077	144.374	9.03773	-57.3098	145.911	8.37307	-78.8346	158.228	-20.8879	-37.7961	140.619	-48.6771	-49.8397	137.082	-59.3983	-11.6633	170.732	-37.4767	-31.9244	154.683	-63.4866	-35.2887	148.537	-63.7182	-0.71973	185.454	-47.1518	-20.1403	170.305	-71.3192	-25.9121	156.476	-67.7622	3.17608	186.506	-15.6836	21.0703	187.961	-21.4189	49.9237	157.373	-4.03411	34.3324	
33	0.275	122.825	-23.9754	41.0939	106.44	-32.2911	11.9558	105.381	-41.7163	-18.2756	121.942	-53.3883	-41.2028	145.211	6.02762	-29.6033	147.035	9.66335	-54.0871	151.281	8.48017	-78.9612	161.087	-21.9916	-37.0159	142.783	-48.1967	-50.3084	134.881	-57.6253	-13.1389	170.905	-39.8801	-34.0576	156.302	-64.8198	-33.5033	150.847	-64.8295	-1.49323	185.386	-48.2741	-22.6311	169.16	-70.5024	-25.8881	156.857	-70.444	6.11399	185.896	-13.2127	21.0813	185.503	-18.6001	48.6122	153.044	-3.32329	38.2207	
34	0.283333	124.265	-23.7724	38.5506	107.168	-31.1202	8.23904	109.19	-40.5951	-16.4148	122.351	-52.8242	-41.3305	149.568	2.85571	-27.802	147.519	11.6411	-57.5848	150.943	10.8614	-78.8273	156.009	-20.1127	-41.2466	143.445	-47.0224	-50.1933	137.97	-55.255	-9.79393	169.666	-37.1158	-32.3736	157.455	-63.0289	-33.5223	147.386	-59.8601	1.54624	184.887	-47.7711	-21.9863	169.065	-70.0406	-24.0241	156.472	-68.605	3.29796	186.111	-16.1485	22.2328	184.799	-19.8378	51.9321	154.196	-3.15696	35.1272	
35	0.291667	124.601	-24.1829	42.0298	108.389	-30.4588	7.10083	106.655	-40.0933	-19.7781	124.69	-51.7443	-36.6833	146.816	6.87014	-30.3708	150.492	8.12698	-53.7887	149.397	11.3563	-79.1663	158.392	-21.3813	-42.5056	144.171	-49.3827	-48.9952	140.82	-57.3095	-10.7372	173.171	-38.092	-31.055	153.832	-63.8656	-31.1736	150.775	-60.2551	3.7942	184.178	-47.6362	-24.0771	169.976	-67.2864	-25.5592	158.619	-67.979	4.0407	184.046	-11.7181	21.7083	185.602	-19.0299	54.1267	157.259	-3.02648	36.3546	
36	0.3	124.785	-22.6722	38.4985	109.374	-31.1211	11.2575	109.514	-39.1429	-23.0335	124.519	-52.0574	-38.2887	150.267	3.93916	-29.342	147.546	9.31076	-55.3395	150.675	6.42136	-79.6615	155.902	-20.5764	-41.3421	144.798	-48.4556	-48.4388	136.977	-55.5975	-7.77933	171.816	-37.3055	-30.6856	155.278	-64.6526	-29.2546	149.779	-59.1536	2.64228	187.824	-48.2036	-20.1147	167.435	-71.7501	-21.7707	157.449	-69.9296	2.23487	183.963	-14.2088	21.5084	184.935	-16.9151	49.1911	156.465	-3.49531	39.1789	
37	0.308333	125.65	-24.7696	42.4805	107.285	-31.0307	11.4639	108.482	-39.9087	-23.0078	125.258	-53.0683	-38.1733	147.715	1.33585	-29.1515	147.83	3.93608	-56.2526	141.741	1.92417	-83.7296	158.401	-22.2126	-40.8227	146.056	-51.1928	-47.0541	140.69	-56.6643	-7.55722	172.688	-37.6695	-30.9884	154.697	-65.4783	-28.5959	147.84	-60.6732	1.28527	187.17	-50.6548	-21.7141	167.324	-71.6224	-20.9472	157.191	-66.6134	6.62994	186.458	-13.7644	22.7424	189.18	-18.1992	49.2525	156.863	-2.75877	33.9503	
38	0.316667	124.548	-23.8249	43.2128	107.896	-31.4138	11.9526	108.662	-40.7824	-21.055	122.155	-54.588	-35.9275	145.214	-1.31533	-34.7109	139.925	-2.36517	-61.1875	135.176	-13.238	-85.8055	159.979	-24.3126	-39.4203	142.308	-50.6626	-47.1874	136.37	-56.4781	-5.96292	168.817	-39.8558	-32.9966	157.082	-66.0666	-31.2738	146.97	-61.5579	1.66975	186.527	-49.1641	-19.9754	171.051	-71.6629	-22.3178	158.486	-68.1565	4.5336	184.691	-15.1495	21.9261	185.63	-16.9479	48.9283	157.62	-1.79752	34.9396	
39	0.325	120.5	-23.2043	42.7973	109.407	-31.9728	8.46497	111.516	-42.3243	-19.1794	122.094	-56.1443	-34.3984	139.579	-5.03441	-30.6996	133.281	-9.75604	-59.551	125.881	-25.3123	-82.9489	154.39	-24.6574	-41.6069	141.301	-55.5676	-44.5387	138.98	-57.8969	-4.89753	170.319	-43.0831	-33.4155	154.192	-67.419	-29.4104	147.204	-61.3152	3.55041	183.203	-48.2965	-21.2616	167.78	-72.8774	-20.8481	159.223	-67.2522	8.48972	186.707	-15.5725	20.1214	187.71	-19.0756	51.3816	155.212	-1.13499	34.3944	
40	0.333333	121.356	-23.1228	40.4193	108.581	-33.5941	11.7423	107.689	-43.943	-17.5354	123.147	-55.5548	-34.7326	137.316	-8.2169	-32.8716	132.344	-19.7666	-59.4316	122.635	-40.5301	-80.7663	157.14	-27.684	-39.7519	140.773	-54.5321	-45.9072	137.745	-60.2274	-4.84425	172.004	-42.7444	-29.5466	154.803	-68.6956	-29.2326	149.73	-66.2769	3.72682	186.627	-52.6955	-21.0588	168.888	-75.3441	-19.395	160.871	-70.6373	9.07113	183.352	-14.8791	19.2129	187.121	-16.6746	50.1784	156.401	-5.16462	34.8412	
41	0.341667	123.2	-24.6195	41.6701	106.077	-33.8318	13.9331	109.738	-43.1692	-17.3656	123.144	-56.6653	-36.8463	135.211	-8.85991	-33.4175	129.402	-21.2323	-59.9963	119.526	-38.7244	-77.4817	152.865	-28.9623	-42.0071	141.688	-58.372	-43.9816	140.315	-61.0517	-3.66561	169.361	-45.228	-32.386	153.792	-68.8054	-30.9651	149.781	-64.4223	5.81592	186.681	-52.6001	-19.3033	164.769	-73.7638	-19.3437	160.67	-72.2559	7.98257	185	-15.1401	21.2445	185.782	-19.5464	47.3334	152.989	-4.11412	35.9817	
42	0.35	124.47	-24.2161	40.6852	108.009	-33.843	14.2711	107.473	-43.3435	-18.5201	121.435	-56.5589	-38.5856	139.298	-9.36216	-35.8756	132.566	-17.0327	-58.8237	122.944	-33.214	-79.2498	155.196	-30.3684	-41.8898	141.793	-56.7351	-46.0809	136.934	-61.9364	-5.12888	166.142	-42.6383	-30.6003	152.219	-69.9319	-29.0037	144.844	-66.5754	2.08771	185.815	-54.1632	-20.0652	167.63	-76.0364	-21.4748	157.974	-71.4914	9.17858	184.555	-16.0044	21.233	187.186	-20.2005	47.3428	153.872	-4.30065	32.7486	
43	0.358333	121.532	-23.1502	41.5974	109.523	-33.4959	13.8378	107.062	-43.1089	-15.4003	118.761	-55.3755	-33.8361	141.406	-6.18182	-30.2064	131.266	-9.99416	-62.5691	124.681	-21.6515	-81.9078	154.413	-26.8038	-36.9686	136.189	-54.4662	-45.571	132.902	-61.3176	-7.51992	167.723	-41.3005	-30.3019	149.831	-69.3437	-27.9473	147.983	-66.9707	3.56487	184.383	-54.5769	-21.9914	163.89	-73.3871	-21.3161	157.319	-70.5896	8.1836	183.727	-16.2806	21.6876	186.784	-18.9916	48.1011	157.273	-6.02278	36.8348	
44	0.366667	124.879	-23.8987	39.0649	108.809	-32.224	14.9299	106.232	-42.1989	-14.3573	117.888	-55.2072	-34.5397	140.051	-1.08253	-33.5801	133.467	-2.46633	-57.7811	131.573	-12.7605	-84.181	151.762	-25.9855	-39.44	138.254	-54.7388	-45.1829	133.387	-59.9974	-6.42508	165.423	-43.398	-32.5537	148.323	-68.6692	-28.2799	146.48	-65.3953	3.14497	179.525	-51.2096	-20.1397	162.759	-73.6412	-19.7265	154.175	-67.3415	6.30322	184.704	-14.8167	17.7826	185.957	-21.3275	51.7268	154.728	-4.25037	37.7482	
45	0.375	124.03	-22.839	40.1167	107.191	-30.6606	11.757	103.256	-40.1073	-17.6701	117.291	-54.7808	-38.0525	142.275	-0.468258	-28.3574	133.313	1.82485	-56.6956	130.148	-3.34263	-84.9018	150.899	-23.2291	-38.9889	134.895	-49.8514	-47.6234	133.572	-59.2035	-7.18672	165.008	-38.6667	-29.2057	147.933	-66.8178	-29.0634	143.826	-64.1128	3.24923	181.152	-52.9884	-22.8307	162.789	-70.054	-23.1149	155.786	-71.1627	8.8676	181.432	-15.0032	20.3161	188.711	-20.4645	52.2676	152.484	-1.54521	35.0636	
46	0.383333	120.415	-21.2072	40.4849	107.193	-29.8945	13.0729	103.104	-40.5582	-19.6504	115.652	-53.4614	-33.5864	137.564	2.14149	-28.9385	135.184	3.04079	-56.6672	130.847	-1.25342	-85.8198	151.827	-23.276	-38.4155	134.059	-50.5613	-46.4499	132.859	-58.474	-8.10125	164.368	-37.7188	-29.9378	146.898	-65.7514	-29.7522	142.961	-62.3498	2.95118	181.838	-53.4942	-24.1165	161.058	-73.705	-19.8034	152.469	-67.4434	5.32717	185.031	-17.4969	16.2724	188.154	-19.4455	47.3847	156.083	-2.99642	35.274	
47	0.391667	124.214	-21.6005	43.7	103.666	-28.7297	13.0458	100.316	-38.9973	-16.0772	117.732	-52.2359	-33.385	135.05	2.07736	-28.0356	133.162	1.76317	-58.2594	122.812	-1.0722	-81.8451	152.265	-24.8083	-40.4166	132.929	-52.5265	-44.8479	130.23	-57.2923	-5.16937	164.684	-38.6699	-30.0642	148.266	-67.9391	-28.0486	142.535	-63.3279	2.28773	179.773	-51.832	-22.9028	159.342	-69.0379	-23.3821	149.949	-68.2076	4.26328	185.674	-15.6166	19.3862	185.667	-18.193	51.167	154.985	-2.42206	38.8012	
48	0.4	121.043	-20.9601	43.6576	101.839	-28.9484	15.7795	100.597	-39.4445	-16.3784	111.756	-52.6588	-32.1415	133.489	-0.639551	-34.7128	123.04	-1.24342	-55.4455	118.072	-11.072	-80.0843	149.726	-26.0492	-40.555	130.592	-51.6116	-45.4878	129.021	-58.8904	-5.46781	160.413	-38.9922	-31.691	146.699	-66.3978	-31.0058	143.616	-62.26	6.65605	179.179	-51.5189	-21.5008	161.519	-74.2996	-22.4178	150.134	-69.6076	4.24816	183.717	-16.4557	20.1585	187.349	-17.949	47.424	154.002	-1.75993	37.1172	
49	0.408333	122.57	-22.0928	42.2607	103.355	-29.4396	12.4368	97.631	-40.6472	-12.4264	111.667	-53.8561	-32.7053	129.02	-6.92016	-31.8737	116.575	-13.9269	-60.2119	106.878	-26.5856	-81.0936	143.772	-24.4442	-37.1543	130.14	-57.8062	-42.8989	128.32	-61.368	-6.1123	159.795	-44.238	-32.4404	141.91	-67.9853	-29.6459	140.857	-64.418	7.25167	174.757	-50.6493	-21.5435	159.186	-75.2316	-21.0351	148.765	-72.4215	5.19193	181.425	-15.8801	15.8984	182.958	-18.1617	45.6343	153.491	-1.59218	36.2381	
50	0.416667	117.434	-22.3676	42.0225	98.4557	-31.9864	16.2933	95.2609	-42.0321	-10.2884	107.529	-55.192	-33.5562	121.074	-8.63893	-33.1285	108.471	-17.5076	-56.734	98.9544	-31.8045	-75.3986	137.29	-29.2215	-41.3077	122.363	-55.829	-43.2978	129.154	-64.2823	-4.85914	156.235	-46.2075	-32.4659	140.231	-71.0966	-28.3197	140.323	-66.7153	8.26923	170.102	-54.4001	-23.1482	151.179	-74.2074	-21.5332	150.168	-74.3664	8.87455	175.636	-15.2897	12.1011	182.188	-16.7811	42.9759	151.985	-4.53684	36.0545	
